<svg xmlns="http://www.w3.org/2000/svg" data-name="Layer 1" width="130.85891" height="319.38996" viewBox="0 0 130.85891 319.38996" xmlns:xlink="http://www.w3.org/1999/xlink"><path d="M626.695,345.22826l.10521-.01423c-1.7726-14.94971-6.97625-25.48217-12.83485-28.65677A20.27221,20.27221,0,0,0,598.18,313.56252c-26.63887,5.98753-35.60175,51.91746-33.49065,89.66924,1.14861,19.27976,4.93435,38.73281,13.80235,56.02733,6.19013,11.94925,12.32779,24.24593,21.28788,34.39439-7.05243-13.43036-10.52729-29.12572-14.44307-44.14994-2.44876-11.35666-3.16037-24.279-2.67341-39.53734,1.78683-24.5688,1.38414-23.27829,6.80658-48.02443.93066-3.86206,1.90849-7.30986,2.88967-10.3519a38.27533,38.27533,0,0,1,3.55189-5.71935c-1.3074,1.69934-.32622.41608.51235-.66933-.15571.21-.28464.38538-.27794.36724,3.98806-4.62041,2.84754-3.93476,6.45831-5.837.156-.05791.30836-.12433.46631-.17679.03823-.01312.07981-.01437.11832-.02679.17636.04479.35078.09363.52519.14721.30836.29761.60807.60151.89076.92424.73226,1.21629,1.24629,2.04078,1.61242,2.62792q.73671,2.14026,1.40032,4.30438c1.05625,6.09036,6.07655,11.15127,12.54993,9.36528C626.49968,354.52461,627.75043,350.02838,626.695,345.22826Z" transform="translate(-534.57054 -290.30502)" fill="#ffffff"/><path d="M661.00388,542.308c-5.62614-8.98283-15.10612-16.08019-25.84745-17.0855a37.717,37.717,0,0,0-10.92775.74076,34.238,34.238,0,0,1,15.30761,4.05713,34.75031,34.75031,0,0,1,13.285,15.3037c1.89985,5.00426,2.10468,7.7445,1.61046,13.0334-.64324,3.22022-2.2869,11.32819-6.84062,17.52851a33.498,33.498,0,0,1-4.02462,4.52316,52.42932,52.42932,0,0,1-4.91872,4.39744c-15.77392,10.94184-35.98128,12.97019-48.93054,5.79749-5.85023-3.385-4.97454-2.362-8.66763-6.21511-1.49074-2.07356-2.00756-2.17458-3.71821-8.39638-2.47192-10.99779,2.39128-17.51512,12.81113-25.74532,8.23286-5.29672,18.17245-7.18289,27.24-10.65566-9.19143,1.38665-18.70238,1.82255-27.55642,4.79468a51.09785,51.09785,0,0,0-17.74688,12.69937c-4.27075,5.15983-5.6987,12.021-5.65266,18.58447-.17776,15.94973,11.85423,26.25294,25.77937,31.49035,14.33591,4.63855,30.25215,2.67019,43.64791-3.94885C657.60939,593.33752,673.551,564.77954,661.00388,542.308Z" transform="translate(-534.57054 -290.30502)"/><path d="M636.7228,312.22722c-7.89826-15.14464-24.97819-25.03191-42.08964-21.02947-27.43,5.9059-47.30194,30.41163-55.777,56.12723-8.20048,23.622-3.39058,49.32569,4.0369,72.51425a238.33,238.33,0,0,0,19.82421,44.8589c9.37923,15.49485,19.96485,30.248,30.19968,45.18484-9.999-23.0535-18.86116-40.157-25.76959-60.07637-8.15584-24.3729-13.18089-46.76907-14.13639-67.16884-.09265-13.10386-.04214-13.73607,2.40495-24.714.391-2.02277,3.45393-10.19116,3.52788-10.5372,10.99249-26.21944,34.45258-42.49288,49.77777-37.01491,9.49644,3.79076,17.14717,16.995,16.52068,40.11123-.547,18.5309-4.11922,36.8359-6.08241,55.2482-2.3603,19.88434-4.22666,39.86845-4.38851,59.90474-.569,15.333,1.70729,30.64828,1.09559,45.94445-.93346-.12-1.86859-.22632-2.80847-.2813-6.60927-.45947-13.22162-.90667-19.80858-1.6226a193.78206,193.78206,0,0,0,19.846,5.81968c2.05612.32217,4.42646,1.85185,6.30621.36431a3.91653,3.91653,0,0,0,1.27392-2.24407,58.21883,58.21883,0,0,0,1.63864-9.00459c.85812-9.55616,1.80581-19.106,2.91256-28.637,2.33462-21.03212,7.78468-49.32443,12.43384-74.7173,3.114-18.65257,6.88638-37.47048,6.44854-56.45513C643.64685,333.62156,642.05928,322.21522,636.7228,312.22722Z" transform="translate(-534.57054 -290.30502)"/><path d="M614.49662,550.28747c-17.95728.44507-17.9103,26.753.00083,27.24691C632.45473,577.08931,632.40817,550.78118,614.49662,550.28747Z" transform="translate(-534.57054 -290.30502)" fill="#ffffff"/></svg>