<svg id="visual" viewBox="0 0 900 450" width="900" height="450" xmlns="http://www.w3.org/2000/svg" xmlns:xlink="http://www.w3.org/1999/xlink" version="1.1"><rect x="0" y="0" width="900" height="450" fill="#fff"></rect><path d="M285 0L285 10.7C285 21.3 285 42.7 269.7 64.2C254.3 85.7 223.7 107.3 223.2 128.8C222.7 150.3 252.3 171.7 264.7 193C277 214.3 272 235.7 261.3 257C250.7 278.3 234.3 299.7 225.5 321.2C216.7 342.7 215.3 364.3 214.5 385.8C213.7 407.3 213.3 428.7 213.2 439.3L213 450L0 450L0 439.3C0 428.7 0 407.3 0 385.8C0 364.3 0 342.7 0 321.2C0 299.7 0 278.3 0 257C0 235.7 0 214.3 0 193C0 171.7 0 150.3 0 128.8C0 107.3 0 85.7 0 64.2C0 42.7 0 21.3 0 10.7L0 0Z" fill="#a2d9ff"></path><path d="M165 0L165.8 10.7C166.7 21.3 168.3 42.7 170.7 64.2C173 85.7 176 107.3 183.3 128.8C190.7 150.3 202.3 171.7 210.5 193C218.7 214.3 223.3 235.7 223.2 257C223 278.3 218 299.7 203.5 321.2C189 342.7 165 364.3 162.2 385.8C159.3 407.3 177.7 428.7 186.8 439.3L196 450L0 450L0 439.3C0 428.7 0 407.3 0 385.8C0 364.3 0 342.7 0 321.2C0 299.7 0 278.3 0 257C0 235.7 0 214.3 0 193C0 171.7 0 150.3 0 128.8C0 107.3 0 85.7 0 64.2C0 42.7 0 21.3 0 10.7L0 0Z" fill="#b6e1ff"></path><path d="M199 0L192 10.7C185 21.3 171 42.7 167.3 64.2C163.7 85.7 170.3 107.3 170.7 128.8C171 150.3 165 171.7 159.7 193C154.3 214.3 149.7 235.7 143 257C136.3 278.3 127.7 299.7 128.3 321.2C129 342.7 139 364.3 138.2 385.8C137.3 407.3 125.7 428.7 119.8 439.3L114 450L0 450L0 439.3C0 428.7 0 407.3 0 385.8C0 364.3 0 342.7 0 321.2C0 299.7 0 278.3 0 257C0 235.7 0 214.3 0 193C0 171.7 0 150.3 0 128.8C0 107.3 0 85.7 0 64.2C0 42.7 0 21.3 0 10.7L0 0Z" fill="#cae8ff"></path><path d="M115 0L119.5 10.7C124 21.3 133 42.7 127.8 64.2C122.7 85.7 103.3 107.3 102.2 128.8C101 150.3 118 171.7 129.2 193C140.3 214.3 145.7 235.7 142 257C138.3 278.3 125.7 299.7 124.8 321.2C124 342.7 135 364.3 136.8 385.8C138.7 407.3 131.3 428.7 127.7 439.3L124 450L0 450L0 439.3C0 428.7 0 407.3 0 385.8C0 364.3 0 342.7 0 321.2C0 299.7 0 278.3 0 257C0 235.7 0 214.3 0 193C0 171.7 0 150.3 0 128.8C0 107.3 0 85.7 0 64.2C0 42.7 0 21.3 0 10.7L0 0Z" fill="#dcf0ff"></path><path d="M103 0L102.2 10.7C101.3 21.3 99.7 42.7 92.2 64.2C84.7 85.7 71.3 107.3 67.5 128.8C63.7 150.3 69.3 171.7 70.7 193C72 214.3 69 235.7 72.7 257C76.3 278.3 86.7 299.7 86.3 321.2C86 342.7 75 364.3 69.7 385.8C64.3 407.3 64.7 428.7 64.8 439.3L65 450L0 450L0 439.3C0 428.7 0 407.3 0 385.8C0 364.3 0 342.7 0 321.2C0 299.7 0 278.3 0 257C0 235.7 0 214.3 0 193C0 171.7 0 150.3 0 128.8C0 107.3 0 85.7 0 64.2C0 42.7 0 21.3 0 10.7L0 0Z" fill="#eef7ff"></path><path d="M57 0L53.2 10.7C49.3 21.3 41.7 42.7 42.8 64.2C44 85.7 54 107.3 54.2 128.8C54.3 150.3 44.7 171.7 40 193C35.3 214.3 35.7 235.7 36.7 257C37.7 278.3 39.3 299.7 41.2 321.2C43 342.7 45 364.3 45.7 385.8C46.3 407.3 45.7 428.7 45.3 439.3L45 450L0 450L0 439.3C0 428.7 0 407.3 0 385.8C0 364.3 0 342.7 0 321.2C0 299.7 0 278.3 0 257C0 235.7 0 214.3 0 193C0 171.7 0 150.3 0 128.8C0 107.3 0 85.7 0 64.2C0 42.7 0 21.3 0 10.7L0 0Z" fill="#ffffff"></path></svg>