<svg id="visual" viewBox="0 0 900 450" width="900" height="450" xmlns="http://www.w3.org/2000/svg" xmlns:xlink="http://www.w3.org/1999/xlink" version="1.1"><rect x="0" y="0" width="900" height="450" fill="#fff"></rect><path d="M376 0L370.2 10.7C364.3 21.3 352.7 42.7 329.8 64.2C307 85.7 273 107.3 261.3 128.8C249.7 150.3 260.3 171.7 268.8 193C277.3 214.3 283.7 235.7 278.3 257C273 278.3 256 299.7 252 321.2C248 342.7 257 364.3 267.5 385.8C278 407.3 290 428.7 296 439.3L302 450L0 450L0 439.3C0 428.7 0 407.3 0 385.8C0 364.3 0 342.7 0 321.2C0 299.7 0 278.3 0 257C0 235.7 0 214.3 0 193C0 171.7 0 150.3 0 128.8C0 107.3 0 85.7 0 64.2C0 42.7 0 21.3 0 10.7L0 0Z" fill="#a2d9ff"></path><path d="M191 0L196.2 10.7C201.3 21.3 211.7 42.7 223.5 64.2C235.3 85.7 248.7 107.3 247 128.8C245.3 150.3 228.7 171.7 235.2 193C241.7 214.3 271.3 235.7 281.8 257C292.3 278.3 283.7 299.7 265.7 321.2C247.7 342.7 220.3 364.3 224.2 385.8C228 407.3 263 428.7 280.5 439.3L298 450L0 450L0 439.3C0 428.7 0 407.3 0 385.8C0 364.3 0 342.7 0 321.2C0 299.7 0 278.3 0 257C0 235.7 0 214.3 0 193C0 171.7 0 150.3 0 128.8C0 107.3 0 85.7 0 64.2C0 42.7 0 21.3 0 10.7L0 0Z" fill="#bbe2ff"></path><path d="M204 0L200.8 10.7C197.7 21.3 191.3 42.7 195.5 64.2C199.7 85.7 214.3 107.3 211.7 128.8C209 150.3 189 171.7 188.7 193C188.3 214.3 207.7 235.7 213.7 257C219.7 278.3 212.3 299.7 209.8 321.2C207.3 342.7 209.7 364.3 198.5 385.8C187.3 407.3 162.7 428.7 150.3 439.3L138 450L0 450L0 439.3C0 428.7 0 407.3 0 385.8C0 364.3 0 342.7 0 321.2C0 299.7 0 278.3 0 257C0 235.7 0 214.3 0 193C0 171.7 0 150.3 0 128.8C0 107.3 0 85.7 0 64.2C0 42.7 0 21.3 0 10.7L0 0Z" fill="#d3ecff"></path><path d="M86 0L97 10.7C108 21.3 130 42.7 134.2 64.2C138.3 85.7 124.7 107.3 119.7 128.8C114.7 150.3 118.3 171.7 117.3 193C116.3 214.3 110.7 235.7 109.7 257C108.7 278.3 112.3 299.7 110.5 321.2C108.7 342.7 101.3 364.3 96.3 385.8C91.3 407.3 88.7 428.7 87.3 439.3L86 450L0 450L0 439.3C0 428.7 0 407.3 0 385.8C0 364.3 0 342.7 0 321.2C0 299.7 0 278.3 0 257C0 235.7 0 214.3 0 193C0 171.7 0 150.3 0 128.8C0 107.3 0 85.7 0 64.2C0 42.7 0 21.3 0 10.7L0 0Z" fill="#e9f5ff"></path><path d="M113 0L101.5 10.7C90 21.3 67 42.7 58.8 64.2C50.7 85.7 57.3 107.3 66 128.8C74.7 150.3 85.3 171.7 88.3 193C91.3 214.3 86.7 235.7 89 257C91.3 278.3 100.7 299.7 97.2 321.2C93.7 342.7 77.3 364.3 67.3 385.8C57.3 407.3 53.7 428.7 51.8 439.3L50 450L0 450L0 439.3C0 428.7 0 407.3 0 385.8C0 364.3 0 342.7 0 321.2C0 299.7 0 278.3 0 257C0 235.7 0 214.3 0 193C0 171.7 0 150.3 0 128.8C0 107.3 0 85.7 0 64.2C0 42.7 0 21.3 0 10.7L0 0Z" fill="#ffffff"></path></svg>